<?xml version="1.0" standalone="no"?>
<!DOCTYPE svg PUBLIC "-//W3C//DTD SVG 20010904//EN"
 "http://www.w3.org/TR/2001/REC-SVG-20010904/DTD/svg10.dtd">
<svg version="1.0" xmlns="http://www.w3.org/2000/svg"
 width="342.000000pt" height="320.000000pt" viewBox="0 0 342.000000 320.000000"
 preserveAspectRatio="xMidYMid meet">

<g transform="translate(0.000000,320.000000) scale(0.100000,-0.100000)"
fill="#000000" stroke="none">
<path d="M1655 2244 c-71 -13 -175 -34 -229 -46 l-100 -23 -28 -105 c-15 -58
-28 -112 -28 -120 0 -9 21 -40 47 -69 35 -40 66 -62 119 -87 76 -34 93 -54 68
-79 -20 -19 -14 -20 -97 16 -55 23 -84 44 -123 87 l-52 56 -138 -53 c-77 -29
-156 -64 -176 -77 -49 -32 -84 -80 -100 -137 -11 -43 -10 -61 9 -153 29 -135
56 -173 161 -221 78 -36 94 -55 69 -81 -15 -14 -22 -13 -89 14 -45 18 -85 42
-104 63 l-31 33 -109 -72 c-60 -40 -110 -73 -110 -74 -6 -4 -31 -282 -27 -296
10 -37 43 -40 438 -40 l383 0 5 213 c2 138 8 225 17 249 23 66 81 130 149 165
55 29 72 33 139 33 122 0 218 -57 274 -163 21 -39 23 -58 28 -272 l5 -230 378
-3 378 -2 24 26 c14 15 25 38 25 52 0 13 -40 108 -90 210 -69 141 -90 195 -90
226 0 23 -11 97 -24 165 l-25 125 -88 82 -88 82 -80 -78 c-54 -53 -99 -86
-139 -104 -67 -30 -88 -32 -106 -11 -18 22 1 41 74 74 43 20 81 49 131 100 39
40 71 78 73 85 3 14 -102 294 -116 308 -5 5 -369 125 -466 153 -6 2 -69 -8
-141 -21z"/>
<path d="M1635 1326 c-38 -17 -90 -72 -104 -109 -6 -16 -11 -100 -11 -188 l0
-159 200 0 200 0 0 160 c0 170 -5 195 -54 248 -51 57 -160 80 -231 48z"/>
</g>
</svg>
